<?xml version="1.0" encoding="UTF-8"?>
<svg id="Layer_2" data-name="Layer 2" xmlns="http://www.w3.org/2000/svg" xmlns:xlink="http://www.w3.org/1999/xlink" viewBox="0 0 48 48">
  <defs>
    <style>
      .cls-1 {
        fill: none;
      }

      .cls-2 {
        clip-path: url(#clippath-1);
      }

      .cls-3 {
        clip-path: url(#clippath);
      }
    </style>
    <clipPath id="clippath">
      <rect class="cls-1" width="48" height="48"/>
    </clipPath>
    <clipPath id="clippath-1">
      <rect class="cls-1" width="48" height="48"/>
    </clipPath>
  </defs>
  <g id="Layer_1-2" data-name="Layer 1">
    <g id="m48-add-user">
      <g class="cls-3">
        <polygon points="15.4 22.5 28.6 22.5 30.66 30.21 31.63 29.95 29.36 21.5 14.63 21.5 10.35 37.5 26.5 37.5 26.5 36.5 11.65 36.5 15.4 22.5"/>
        <g class="cls-2">
          <path d="M22,19.5c4.14,0,7.5-3.36,7.5-7.5s-3.36-7.5-7.5-7.5-7.5,3.36-7.5,7.5,3.36,7.5,7.5,7.5M22,5.5c3.58,0,6.5,2.92,6.5,6.5s-2.92,6.5-6.5,6.5-6.5-2.92-6.5-6.5,2.92-6.5,6.5-6.5"/>
          <polygon points="34.5 33.28 33.5 33.28 33.5 36.5 30.5 36.5 30.5 37.5 33.5 37.5 33.5 40.76 34.5 40.76 34.5 37.5 37.5 37.5 37.5 36.5 34.5 36.5 34.5 33.28"/>
          <path d="M34,30.5c-3.58,0-6.5,2.92-6.5,6.5s2.92,6.5,6.5,6.5,6.5-2.92,6.5-6.5-2.92-6.5-6.5-6.5M34,42.5c-3.03,0-5.5-2.47-5.5-5.5s2.47-5.5,5.5-5.5,5.5,2.47,5.5,5.5-2.47,5.5-5.5,5.5"/>
        </g>
      </g>
    </g>
  </g>
</svg>