<?xml version="1.0" encoding="UTF-8"?>
<svg id="Layer_2" data-name="Layer 2" xmlns="http://www.w3.org/2000/svg" xmlns:xlink="http://www.w3.org/1999/xlink" viewBox="0 0 48 48">
  <defs>
    <style>
      .cls-1 {
        fill: none;
      }

      .cls-2 {
        clip-path: url(#clippath);
      }
    </style>
    <clipPath id="clippath">
      <rect class="cls-1" width="48" height="48"/>
    </clipPath>
  </defs>
  <g id="Layer_1-2" data-name="Layer 1">
    <g id="m48-cctv-surveillance-camera">
      <g class="cls-2">
        <path d="M43.84,23.91L14.83,7.33l-8.52,13.85,5.98,3.49-1.67,5.84h-5.12v-6h-1v13h1v-6h5.88l1.81-6.32,17.88,10.43,2.69-2.47,4.43,2.53,4.5-7.87-1.91-1.09,3.07-2.82ZM30.93,34.38L7.69,20.83l1.17-1.9,17.44,9.97.77-.71-17.69-10.11,5.78-9.4,26.98,15.42-11.22,10.29ZM41.32,28.19l-3.5,6.13-3.28-1.88,5.47-5.01,1.32.75Z"/>
      </g>
    </g>
  </g>
</svg>