<?xml version="1.0" encoding="UTF-8"?>
<svg id="Layer_2" data-name="Layer 2" xmlns="http://www.w3.org/2000/svg" xmlns:xlink="http://www.w3.org/1999/xlink" viewBox="0 0 48 48">
  <defs>
    <style>
      .cls-1 {
        fill: none;
      }

      .cls-2 {
        clip-path: url(#clippath-1);
      }

      .cls-3 {
        clip-path: url(#clippath);
      }
    </style>
    <clipPath id="clippath">
      <rect class="cls-1" width="48" height="48"/>
    </clipPath>
    <clipPath id="clippath-1">
      <rect class="cls-1" width="48" height="48"/>
    </clipPath>
  </defs>
  <g id="Layer_1-2" data-name="Layer 1">
    <g id="m48-finance">
      <g class="cls-3">
        <path d="M34.5,40.5h6v-17h-6v17ZM35.5,24.5h4v15h-4v-15Z"/>
        <path d="M25.5,40.5h6v-14.02h-6v14.02ZM26.5,27.48h4v12.02h-4v-12.02Z"/>
        <path d="M16.5,40.52h6v-9.07h-6v9.07ZM17.5,32.45h4v7.07h-4v-7.07Z"/>
        <path d="M7.5,40.5h6v-14h-6v14ZM8.5,27.5h4v12h-4v-12Z"/>
        <g class="cls-2">
          <path d="M38.13,17.79c1.68-.98,2.59-2.66,2.56-4.74.03-2.07-.88-3.75-2.56-4.74-1.87-1.09-4.39-1.09-6.26,0-1.68.98-2.59,2.67-2.56,4.73-.02,1.45.43,2.71,1.27,3.67l-6.31,6.26-4.95-4.95-6.02,5.98.7.71,5.31-5.28,4.95,4.95,7.04-6.98c.18.14.37.27.57.38.94.55,2.03.82,3.13.82s2.2-.27,3.13-.82M30.31,13.05c-.03-1.7.71-3.07,2.07-3.86.79-.46,1.71-.69,2.63-.69s1.84.23,2.63.69c1.36.79,2.09,2.17,2.07,3.86v.02c.03,1.7-.71,3.07-2.07,3.86-1.57.92-3.68.92-5.25,0-1.36-.79-2.09-2.17-2.07-3.88"/>
          <path d="M35.5,16.5v-1h.5c.83,0,1.5-.67,1.5-1.5s-.67-1.5-1.5-1.5h-.5v-1h2v-1h-2v-1h-1v1h-.5c-.83,0-1.5.67-1.5,1.5s.67,1.5,1.5,1.5h.5v1h-2v1h2v1h1ZM34,12.5c-.28,0-.5-.22-.5-.5s.22-.5.5-.5h.5v1h-.5ZM35.5,13.5h.5c.28,0,.5.22.5.5s-.22.5-.5.5h-.5v-1Z"/>
        </g>
      </g>
    </g>
  </g>
</svg>