<?xml version="1.0" encoding="UTF-8"?>
<svg id="Layer_2" data-name="Layer 2" xmlns="http://www.w3.org/2000/svg" xmlns:xlink="http://www.w3.org/1999/xlink" viewBox="0 0 48 48">
  <defs>
    <style>
      .cls-1 {
        fill: none;
      }

      .cls-2 {
        clip-path: url(#clippath-1);
      }

      .cls-3 {
        clip-path: url(#clippath);
      }
    </style>
    <clipPath id="clippath">
      <rect class="cls-1" width="48" height="48"/>
    </clipPath>
    <clipPath id="clippath-1">
      <rect class="cls-1" width="48" height="48"/>
    </clipPath>
  </defs>
  <g id="Layer_1-2" data-name="Layer 1">
    <g id="m48-it-security-1">
      <g class="cls-3">
        <g class="cls-2">
          <path d="M24,6.44L7.41,14.74l6.17,21.61,10.42,5.21,10.42-5.21,6.17-21.61L24,6.44ZM33.58,35.65l-9.58,4.79-9.58-4.79-5.83-20.39,15.41-7.7,15.4,7.7-5.83,20.39ZM27.5,20.5v-.5c0-1.93-1.57-3.5-3.5-3.5s-3.5,1.57-3.5,3.5v2.5h-2v4.5l.92,3.5h9.16l.9-3.37.02-4.63h-8v-2.5c0-1.38,1.12-2.5,2.5-2.5s2.5,1.12,2.5,2.5v.5h1ZM28.5,23.5v3.43l-.69,2.57h-7.63l-.69-2.57v-3.43h9ZM24.5,27.5h-1v-2h1v2ZM24,37.44l7-3.5v1.12l-7,3.5-7-3.5v-1.12l7,3.5ZM34,14.44v1.12l-10-5-10,5v-1.12l10-5,10,5Z"/>
        </g>
      </g>
    </g>
  </g>
</svg>