<?xml version="1.0" encoding="UTF-8"?>
<svg id="Layer_2" data-name="Layer 2" xmlns="http://www.w3.org/2000/svg" xmlns:xlink="http://www.w3.org/1999/xlink" viewBox="0 0 48 48">
  <defs>
    <style>
      .cls-1 {
        fill: none;
      }

      .cls-2 {
        clip-path: url(#clippath-1);
      }

      .cls-3 {
        clip-path: url(#clippath);
      }
    </style>
    <clipPath id="clippath">
      <rect class="cls-1" width="48" height="48"/>
    </clipPath>
    <clipPath id="clippath-1">
      <rect class="cls-1" width="48" height="48"/>
    </clipPath>
  </defs>
  <g id="Layer_1-2" data-name="Layer 1">
    <g id="m48-text-and-image">
      <g class="cls-3">
        <path d="M10.49,40.51h27.01V7.5H10.49v33.01ZM36.49,39.49H11.5V8.51h24.99v30.99Z"/>
        <rect x="14.15" y="34.5" width="18.85" height="1"/>
        <rect x="14.57" y="25.57" width="12.56" height="1"/>
        <rect x="14.48" y="28.5" width="15.52" height="1"/>
        <rect x="14.36" y="31.5" width="6.64" height="1"/>
        <g class="cls-2">
          <path d="M30,17.5c1.38,0,2.5-1.12,2.5-2.5s-1.12-2.5-2.5-2.5-2.5,1.12-2.5,2.5,1.12,2.5,2.5,2.5M30,13.5c.83,0,1.5.67,1.5,1.5s-.67,1.5-1.5,1.5-1.5-.67-1.5-1.5.67-1.5,1.5-1.5"/>
          <path d="M29.56,22.5h4.94v-12H13.5v12h0s16.06,0,16.06,0h0ZM14.64,21.5l4.26-7.36,3.66,6.34,2.34-4.05,2.92,5.07h-13.18ZM14.5,11.5h19v10h-4.52l-4.08-7.07-2.34,4.05-3.66-6.34-4.4,7.61v-8.25Z"/>
        </g>
      </g>
    </g>
  </g>
</svg>